# xmcd
#
# Track frame offsets: 
#        150
#        61201
#        145709
#        185607
#        219630
#        310850
#
# Disc length: 4529 seconds
#
# Revision: 1
# Processed by: cddbd v1.5.2PL0 Copyright (c) Steve Scherf et al.
# Submitted via: ExactAudioCopy v0.99pb5
#
DISCID=5411af06
DTITLE=Charles Tolliver - Mosaic Select 20 (Disc3)
DYEAR=2005
DGENRE=Jazz
TTITLE0=On The Nile
TTITLE1=Ruthie's Heart
TTITLE2=Repetition
TTITLE3=Impact
TTITLE4=Our Second Father
TTITLE5=Earl's World
EXTD=YEAR: 2005
EXTT0=
EXTT1=
EXTT2=
EXTT3=
EXTT4=
EXTT5=
PLAYORDER=
